<svg xmlns="http://www.w3.org/2000/svg" xmlns:xlink="http://www.w3.org/1999/xlink" viewBox="0 0 2281.67 2560.11">
    <defs>
        <linearGradient id="linear-gradient" x1="1008.48" y1="1297.2" x2="252.12" y2="2506.59"
                        gradientUnits="userSpaceOnUse">
            <stop offset="0" stop-color="#311944"/>
            <stop offset="1" stop-color="#893976"/>
        </linearGradient>
        <linearGradient id="linear-gradient-2" x1="-5505.59" y1="2649.62" x2="-6390.69" y2="4662.5"
                        gradientTransform="matrix(-0.83, 0.56, 0.56, 0.83, -6105.9, 1553.93)"
                        xlink:href="#linear-gradient"/>
        <linearGradient id="linear-gradient-3" x1="1357.75" y1="152.44" x2="277.76" y2="2772.01"
                        gradientUnits="userSpaceOnUse">
            <stop offset="0" stop-color="#ab316d"/>
            <stop offset="1" stop-color="#792d3d"/>
        </linearGradient>
        <linearGradient id="linear-gradient-4" x1="1414.92" y1="152.44" x2="334.92" y2="2772.01"
                        gradientUnits="userSpaceOnUse">
            <stop offset="0" stop-color="#ffc444"/>
            <stop offset="1" stop-color="#f36f56"/>
        </linearGradient>
        <linearGradient id="linear-gradient-5" x1="841.1" y1="1472.53" x2="1597.64" y2="-139.89"
                        xlink:href="#linear-gradient-4"/>
        <linearGradient id="linear-gradient-6" x1="1350.96" y1="410.19" x2="350.75" y2="2448.77"
                        xlink:href="#linear-gradient-4"/>
        <linearGradient id="linear-gradient-7" x1="1215.34" y1="44.01" x2="118.08" y2="2705.44"
                        xlink:href="#linear-gradient-4"/>
    </defs>
    <title>win_icon</title>
    <g style="isolation:isolate">
        <g id="Layer_2" data-name="Layer 2">
            <g id="Illustration">
                <g style="mix-blend-mode:soft-light">
                    <path d="M750.23,1395.13l3-2c-44.73-67.93-53.4-155.86-25.77-261.34,20.26-77.35,59.2-162.17,115.74-252.09l-3-1.89c-56.74,90.23-95.82,175.38-116.17,253.08C696.1,1237.44,704.93,1326.33,750.23,1395.13Z"
                          style="fill:#fcfdfe"/>
                </g>
                <g style="mix-blend-mode:soft-light">
                    <path d="M951,1405.87l1.21-3.34c-76.47-27.68-136-93-177-194-30-74.11-49.55-165.37-58-271.26l-3.53.29c8.5,106.24,28.1,197.86,58.27,272.3C813.33,1311.87,873.57,1377.83,951,1405.87Z"
                          style="fill:#fcfdfe"/>
                </g>
                <polygon points="709.84 2560.11 576.48 2080.51 0 2103 775.93 937.26 1439.99 1413.94 709.84 2560.11"
                         style="fill:url(#linear-gradient)"/>
                <polygon
                        points="1661.63 2471.93 1783.88 2000.13 2281.67 1979.95 1599.99 907.84 938.72 1383.69 1661.63 2471.93"
                        style="fill:url(#linear-gradient-2)"/>
                <path d="M1858.12,820.72c0,431.87-326.88,789.2-744.1,798.43-433.51,9.59-797.58-357.62-797.58-820.53S680.51-21,1114,1C1531.24,22.16,1858.12,388.86,1858.12,820.72Z"
                      style="fill:url(#linear-gradient-3)"/>
                <path d="M1915.29,820.72c0,431.87-326.88,789.2-744.1,798.43-433.52,9.59-797.58-357.62-797.58-820.53S737.67-21,1171.19,1C1588.41,22.16,1915.29,388.86,1915.29,820.72Z"
                      style="fill:url(#linear-gradient-4)"/>
                <path d="M1797.65,819c0,363.59-276.05,662.81-626.46,668.48-361.84,5.86-663.95-301.63-663.95-687s302.11-684.18,664-667.95C1521.6,148.31,1797.65,455.44,1797.65,819Z"
                      style="fill:url(#linear-gradient-5)"/>
                <path d="M1750.59,818.36c0,336.28-255.62,612.42-579.4,616.9-333.51,4.62-611.32-279.16-611.32-634s277.81-630.62,611.32-616.44C1495,198.61,1750.59,482.09,1750.59,818.36Z"
                      style="fill:url(#linear-gradient-6)"/>
                <path d="M1148,1346.44c34.64-355.75,281.32-502.1,258.52-801.21-10.71-140.35-81.11-325.72-334.32-542.69C683.47,34.89,373.61,372.07,373.61,798.62c0,461,361.14,827.09,792.35,820.57C1146.5,1532.5,1138.75,1441.15,1148,1346.44Z"
                      style="opacity:0.30000000000000004;mix-blend-mode:multiply;fill:url(#linear-gradient-7)"/>
            </g>
        </g>
    </g>
</svg>